<svg version="1.2" xmlns="http://www.w3.org/2000/svg" viewBox="0 0 862 234" width="862" height="234">
  <defs>
    <clipPath clipPathUnits="userSpaceOnUse" id="a">
      <path d="M-517-440h2098V776H-517z"/>
    </clipPath>
  </defs>
  <g clip-path="url(#a)">
    <path d="M10.5 219.8q2.4 2.6 6 2.6t6.5-4.9q3-5 5.2-12.3 2.3-7.3 3.3-12.3l2.5-12.8 2.8-14.6 2.7-15.7 2.9-16.8q1.4-8.5 3.4-18.1l3.7-18.1Q50.7 91.3 53 81l3-13.4 4.4-17.8 1.3-5.3 3.4-13.2q1.2-4.5 3.8-10.9 2.4-6.5 5.9-10.8Q78.2 5 82.3 5q3 0 5.4 1.3 2.6 1.3 4.1 3.6 1.4 2.2 1.5 5.2 0 2.2-1.4 3.6-1.3 1.4-3.5 1.4t-3.7-1.4q-1.4-1.4-1.4-3.6t1.4-3.7q1.4-1.4 3.7-1.3-2.6-2.5-6-2.5-1.8 0-3.9 5.3-2.3 5.4-4.3 12.7-1.8 7.1-2.7 12.1l-2.4 12.2-2.7 14.5-2.7 15.1-2.9 17.2-3.6 18.4-3.8 18.2-3.2 15.3-4 17.2-3.6 14.5-1.1 4.6q-2.6 10.5-5.2 18.4t-7.6 14.9q-5.1 6.9-12.2 6.9-4.2 0-7.6-3t-3.4-7.2q0-2.2 1.5-3.7t3.6-1.4q1.4 0 2.5.7 1.1.6 1.8 1.8t.6 2.6q0 2.2-1.4 3.5-1.4 1.4-3.6 1.4m108.7-33.3-9.2 36.9q-.4 1.2-.4 1.7 0 1.1 3.3 1.2h1.2q1.8 0 2 .8 0 1.3-1.3 1.3l-8.6-.2h-.1l-8.5.2h-.1q-1 0-1-.8 0-1.2 1.1-1.3h.8q4.5 0 5.4-1 .4-.5.8-1.9l.1-.4 9.9-39.7h-.1l-27.9 43.9q-.9 1.2-1.6 1.2t-1-1.5l-6-43-9.5 37.8q-.2 1-.2 1.5 0 2.6 3.3 3l1.4.1q1.2 0 1.2.8 0 1.3-1.2 1.3l-7-.2h-.2l-6.8.2h-.1q-1 0-1-.8 0-1.3 1.3-1.3 5.5-.2 6.9-3.5l.6-1.7 8.8-35.3.2-1.3q0-.8-1.1-1l-.4-.1-3-.1q-1.8 0-1.9-.6l-.1-.3q0-1.1 1.2-1.3h10.4q1.6 0 1.9.4.1.3.2 1.2l5.5 39.2 25.2-39.5q.8-1.1 1.4-1.2l1.4-.1h9.1q1.7 0 1.9.8 0 1.2-1 1.3l-1.2.1q-4.4 0-5.2 1.1h-.1v.1q-.4.5-.7 2m77.5-86.8 14 32.5q1.5 3.4 3.7 4.1h.2q1.1.4 3 .4 2 0 2 1.1 0 1.9-1.8 1.9l-9.6-.3h-.1l-11.8.3h-.3q-1.4 0-1.4-1 .6-1.9 2.2-2 5.1 0 5.1-3.1 0-.8-1.1-3.5l-11.5-26.6-14.8 11.5q-2.9 11.7-3.9 15.5l-.9 4.4q0 1.7 4.5 1.8h1.9q2.6 0 2.8 1.1 0 1.9-2 1.9l-6.3-.2h-.1l-6.2-.1h-.2l-12.5.3h-.1q-1.4 0-1.4-1.1 0-1.7 1.5-1.9h1.2q6.5 0 7.8-1.4.5-.7 1.1-2.8l.1-.5 13.3-53.1.4-1.9q0-1.2-1.6-1.5h-.1l-.5-.1-4.2-.2q-2.6 0-2.8-.8l-.1-.4q0-1.9 2-1.9l12.7.3 12.6-.3h.1q1.4 0 1.4 1.1 0 1.7-1.5 1.9l-1.9.1q-6 0-7.2 1.6-.5.7-1.1 3l-7.9 31.7L214 81.8q3.6-2.9 3.6-4.5 0-1.7-2.7-2.1h-.4q-1.2-.2-1.2-1.1 0-2 1.9-2l10.9.3h.1l6.9-.3h.1q1.1 0 1.1 1.1 0 1.7-1.8 2-5.4.6-11.7 4.5-2 1.2-4.4 3l-17.3 13.4q-2.9 2.1-2.9 2.3zM305.1 72l-14.3 57.3q-.5 2.4-.5 4.7 0 4.6 2.9 4.6 3.8 0 6.4-8l1.1-4.3q.8-1.7 1.4-1.8 1.2 0 1.2 1 0 1.5-1.8 6.9l-1.2 2.9q-2.7 5.4-7.3 5.4-5.5 0-8-4.7-.7-1.2-1-2.7-6.2 7.4-12.9 7.4-7.4 0-10.9-6.7-2.2-3.9-2.2-9.1 0-10.7 7.4-19.8 6.9-8.3 15-9.1l1.4-.1q6.1 0 9.1 6.3l6-23.4.3-2q0-1.1-1.4-1.4-1.2-.3-3.6-.3-2.1 0-2.3-1.2 0-1.7 1.3-1.9 9.3-1 12.6-1 1.3 0 1.3 1m-20.6 55.9 5-19.4.3-1.7q0-2.1-1.8-5.1-2.2-3.6-6.1-3.6-5.1 0-9.8 6.7l-1.6 2.8q-2.9 5.7-4.9 16.3-.6 3.4-.6 5.4 0 6.7 3.8 8.7 1.1.6 2.5.6 5.6 0 11.2-7.1 1.4-1.5 1.9-3.2v-.1zm38.7.4 34.5-57.8q1-1.6 2.5-1.7 1.5 0 1.7 1l.2 1.3 6.1 61.9q.3 2.5 1.2 3h.1v.1q1.1.5 5.1.5 2.2 0 2.3 1.1 0 2-1.8 2l-11.1-.3h-.1l-12.3.3h-.1q-1.4 0-1.4-1.1.8-1.9 2.4-2 7.2 0 7.2-3.3l-1.6-16.5h-24.9l-7.5 12.7q-1.4 2.4-1.4 3.6 0 3.1 4.7 3.5 1.5 0 1.5 1.2 0 1.9-1.8 1.9l-9.5-.3h-.4l-8.4.3h-.2q-1.2 0-1.2-1.1 0-1.8 1.4-1.9v-.1h.6q6.3-.4 10.2-5.4 1-1.2 2-2.9m11.9-14.6h22.7L354.6 81zm140.2-6.4h-59.1q-3.2 0-3.4-2 0-1.9 3.3-1.9h59.3q3.2 0 3.3 1.9 0 2-3.4 2m.1 19.2h-59.3q-3.2 0-3.3-2 0-1.9 3.4-1.9h59.1q3.2 0 3.4 1.9 0 2-3.3 2m80.8-4-2.8 17.2h-36.7q0-2.5.6-3.2l.5-.5 19-21.2q10.4-11.6 10.4-21.8 0-8.9-5.4-13.4l-.1-.1h-.1q-3.2-2.7-7.7-2.7-7.1 0-11.4 6.2-1.2 1.7-2 3.9l1.3-.1q4 0 5.1 3.6v.1q.2.7.2 1.5 0 3.9-3.8 5l-1.4.2q-3.6 0-4.8-3.1-.4-1-.4-2.4 0-7.7 5.8-13.1 5.3-4.8 12.7-4.8 10.9 0 16.9 7.3 3.5 4.2 4 10.1l.1 1.8q0 7.2-5.5 13.7-2.8 3.4-8.9 8.9l-6 5.4-1 .9-10.5 10.2h17.8q8.7 0 9.4-.8 1-1.4 2.2-8.8zm31.3-19.7-5.6 21.8-2.6 9.7q-1.6 4.9-3 5.9v.1q-.9.5-2 .5-2.3 0-2.8-2l-.1-.7q0-.9.8-2.4 9.3-20.1 12.7-32.9h-5.6q-7.8 0-12.6 7.6-.9 1.2-1.6 1.2-1.2 0-1.2-1t3.6-6l1.3-1.5.7-.8.5-.6q4.3-4.7 10.3-4.7h33.1q3.4 0 3.9 1.5v.1l.1.8q0 3.4-4.9 3.4h-11.3q-1.7 8.4-1.7 15.7 0 9.2 2.8 16.3.6 1.4.6 2.2 0 2.3-2.5 3.4-.7.4-1.5.4-2 0-3-2.8l-.6-2.2q-.8-3.3-.8-7.5 0-6.5 2.7-18.9l1.5-6.6zm91.4-3-23.5 26.4q9 31.6 13.9 31.6 2.8 0 4.6-2.7l.5-.9.2-.4q.4-1.2 1.4-1.3 1.2 0 1.2 1 0 1.7-2.3 4l-.1.1q-2.6 2.4-6.1 2.4-8.5 0-11.6-6.8l-.6-1.1q-2.4-5.6-6.8-19.7l-22.6 25.4q-1.1 1.1-1.6 1.1-1 0-1.2-1.2 0-.5 1.1-1.6l22.8-25.4q.7-.8.7-1.1 0-1.3-3.7-12.4l-2.6-7.2q-4.5-11.9-7.6-11.9-2.7 0-4.5 2.8h-.1v.1l-.7 1.4q-.4 1.1-1.2 1.1-1.2 0-1.2-1 0-1.9 2.2-4.1 2.6-2.5 6.1-2.5 8.4 0 11.7 6.6v.1l.1.1v.1l.2.4q2.2 5.3 7 20.2l22.7-25.2q.9-1.2 1.5-1.2 1.2 0 1.2 1.2 0 .5-1.1 1.6m37.1 63.6q0 1-1 1-1.2 0-5.3-4-6.1-6.2-10.2-14.6-6.5-13.4-6.5-30.9 0-16.7 6.2-30.2 5.2-10.9 13.1-17.6 2.1-1.7 2.7-1.7 1 0 1 1 0 .5-1.3 1.7-16 16.2-16 46.8t15.6 46.4q1.7 1.6 1.7 2.1m97.4-83.7-13.2 52.8q-.5 1.7-.5 2.3 0 1.7 4.7 1.8h1.8q2.5 0 2.7 1.1 0 2-1.9 2l-12.2-.3h-.1l-12.2.3h-.1q-1.5 0-1.5-1.2 0-1.7 1.6-1.9h1.2q6.4 0 7.7-1.4.6-.7 1.2-2.7l.1-.5 14.1-56.8-40 62.7q-1.2 1.7-2.2 1.8-1.1 0-1.5-2.3L754.6 76h-.1L741 130q-.4 1.5-.4 2.3 0 3.6 4.8 4.2l2 .1q1.7 0 1.7 1.1 0 2-1.7 2l-9.9-.3h-.3l-9.8.3h-.1q-1.4 0-1.4-1.2 0-1.9 1.7-1.9 7.9-.3 9.9-4.9l.8-2.5 12.6-50.4.4-1.9q0-1.2-1.6-1.5h-.1l-.5-.1-4.2-.2q-2.6 0-2.8-.8l-.1-.4q0-1.6 1.7-1.8h14.8q2.3 0 2.7.5v.1q.2.4.4 1.6l7.7 56.1 36.2-56.5q1.1-1.6 1.9-1.7l1.9-.1h13.1q2.5 0 2.7 1.1 0 1.6-1.4 1.8l-1.8.1q-6.2 0-7.4 1.6l-.1.1v.1q-.5.7-1 2.8m43.7 35.2q0 16.8-6.2 30.2-5.1 11-13.1 17.7-2 1.6-2.6 1.6-1 0-1-1 0-.4 1.3-1.6 15.9-16.3 15.9-46.9 0-30.2-14.9-45.7l-.4-.5q-1.9-1.8-1.9-2.3 0-1 1-1 1.2 0 5.2 4.1 6.1 6.1 10.2 14.5 6.5 13.5 6.5 30.9" style="fill:#8080ff"/>
  </g>
</svg>
