<svg version="1.2" xmlns="http://www.w3.org/2000/svg" viewBox="0 0 686 98" width="686" height="98">
	<title>subset</title>
	<defs>
		<clipPath clipPathUnits="userSpaceOnUse" id="cp1">
			<path d="m-641-488h2098v1216h-2098z"/>
		</clipPath>
	</defs>
	<style>
		.s0 { fill: #0000cc } 
	</style>
	<g id="Clip-Path" clip-path="url(#cp1)">
		<g>
			<path class="s0" d="m61 11l-37.2 60.7h14q12.7 0 19.6-9.2 3-3.9 3.9-8.4 0.4-2.5 1.4-2.8l0.6-0.1q1.4 0 1.7 1.7l-2.7 19.5q-0.4 2.3-1.1 2.6h-0.1q-0.5 0.2-2.2 0.2h-50.8q-2.9 0-3.2-1.2l-0.1-0.6q0-0.5 0.9-1.8l37.2-60.7h-8q-9.8 0-16 3.9-6.2 3.9-7.3 10.5-0.4 1.5-1.7 1.5-1.5-0.4-1.8-1.9l0.2-1.3 1.5-13.3q0.3-2.3 1-2.6 0.4-0.2 1.4-0.3h46.4q2.7 0 3.2 1v0.1l0.1 0.7q0 0.5-0.9 1.8zm-14-0.1l-37.4 60.8h10.1l37.3-60.8zm-33.7 0l-0.5 4.4q3.3-3 5.7-4.3v-0.1zm39 60.7h6.8l0.9-6.6q-3.4 4.2-7.7 6.6zm108.8-55.4h-26.8q-11.8 0-19.6 8-6.8 7.1-6.8 16.8 0 10.6 8.1 17.8 7.5 6.8 18.4 6.8h26.7q3.2 0 3.3 2 0 2-3.3 2h-27q-12.4 0-21.3-8.3-8.9-8.4-8.9-20.4 0-12.3 9.4-20.7 8.8-8 20.7-8h27.1q3.2 0 3.3 2 0 2-3.3 2zm-51.9 68.6h51.9q3.2 0 3.3 2 0 2-3.3 2h-51.9q-3.2 0-3.3-2 0-2 3.3-2zm138.4-8.7q2.9 6.5 9.7 9.3 3.4 1.4 7.3 1.4 2.7 0 5.4-0.7l1-0.2q1.4 0 1.7 1.8 0 1.2-2.1 2l-0.1 0.1h-0.1l-0.5 0.2q-7.7 2.9-15.5 2.9-13.1 0-21.5-9.5-3.1-3.4-5-7.8-12.8-3.4-19.3-14.1-5.1-8.6-5.1-20.2 0-19.4 13.4-29.2 9.2-6.6 21.9-6.6 15.2 0 25 9.2 6.7 6.5 9 16.3 1.2 4.8 1.2 10.4 0 19.2-13.2 28.9-5.8 4.3-13.2 5.8zm-22.5-64.3l-0.1-0.1q-9.6 3.6-14.4 12.9-3.6 7.2-3.6 16.8 0 18.1 12.6 26.7 2.6 1.9 5.6 3-7.7-9.2-7.7-29.8 0-20.6 7.6-29.5zm27.4-0.1l-0.1 0.1q7.6 8.9 7.6 29.6 0 20.5-7.7 29.7 10.3-4 15.1-14.1 3.1-6.7 3.1-15.7 0-17.9-12.1-26.6-2.9-2-5.9-3zm-13.7 61.9q14.9 0 17.4-23.4 0.4-4.2 0.4-8.9 0-27-12.7-31.4-2.4-0.9-5.1-0.9-15 0-17.5 23.4-0.4 4.2-0.4 9 0 26.9 12.7 31.3 2.4 0.9 5.2 0.9zm-6.6 3q6.1 10.5 17.8 12.5 2.2 0.4 4.4 0.4 3.1 0 3.1-0.2l-1.1-0.5q-8.6-3.5-12.3-12-2.8 0.3-5.3 0.3-3.8 0-6.6-0.5zm137.9-60.4h-26.8q-11.8 0-19.6 8-6.8 7.1-6.8 16.8 0 10.6 8.1 17.8 7.5 6.8 18.4 6.8h26.7q3.2 0 3.3 2 0 2-3.3 2h-27q-12.4 0-21.3-8.3-8.9-8.4-8.9-20.4 0-12.3 9.4-20.7 8.8-8 20.7-8h27.1q3.2 0 3.3 2 0 2-3.3 2zm-51.9 68.6h51.9q3.2 0 3.3 2 0 2-3.3 2h-51.9q-3.2 0-3.3-2 0-2 3.3-2zm117.6-40.7v22q0 4.1 1.2 4.9 1 0.7 4.8 0.7 2.8 0 2.8 1.7-0.9 1.7-3.3 1.8h-27.1q-3 0-3.3-1.2l-0.1-0.6q0-1.7 2.7-1.7 4.6 0 5.5-1.3 0.5-0.8 0.6-2.8v-51.1q0-4.2-1.3-4.9-1-0.7-4.8-0.7-2.7 0-2.7-1.7 0.8-1.7 3.4-1.8h31.1q12.8 0 20.3 5.9l0.1 0.1q4 3.4 5.3 8.3 0.5 1.9 0.5 4.2 0 12.8-13.9 16.3-1.5 0.5-3.4 0.8 4 6.6 12.3 18.3 7.3 9.7 10.9 10.4 1.4 0.3 1.4 1.7-0.9 1.7-3.2 1.8h-13.7q-2.4 0-2.9-0.7l-0.4-0.5-4.4-6.9-14.9-23zm19.1-4.8q12.1-2.2 13.1-11.4l0.1-2q0-9.6-11.1-13.2l-2.8-0.7q3.8 4.8 3.8 14 0 9.2-3.1 13.3zm-19.1-23.1v24.5q11.6 0 15.1-2.4 0.9-0.7 1.6-1.7 2-2.9 2-10.6 0-11.5-6.1-14-2.5-1.1-6.4-1.1-5.9 0-6.2 4.2zm-13.4 55.6h10.8q-0.8-1.8-0.8-5.5v-50.4q0-3.4 1.3-5h-11.3q0.8 1.8 0.8 5.4v50q0 3.7-0.8 5.5zm21.1-27.7l17.8 27.7h9.6q-7.3-7.4-20.4-28.3-3 0.4-5.2 0.4zm130.3-27.9h-26.8q-11.8 0-19.6 8-6.8 7.1-6.8 16.8 0 10.6 8.1 17.8 7.5 6.8 18.4 6.8h26.7q3.2 0 3.3 2 0 2-3.3 2h-27q-12.4 0-21.3-8.3-8.9-8.4-8.9-20.4 0-12.3 9.4-20.7 8.8-7.9 20.7-7.9h27.1q3.2 0 3.3 1.9 0 2-3.3 2zm-52 68.6h52q3.2 0 3.3 2 0 2-3.3 2h-52q-3.1 0-3.2-2 0-2 3.2-2zm156.2-76v16.5q-0.4 3-1.7 3.3-1.3 0-1.9-1.9-2.7-8.5-11.6-13.9-6-3.8-11.1-3.8-8.8 0-13.6 10.7-4.1 8.6-4.1 21.8 0 27.4 15.4 30.5 1.7 0.4 3.8 0.4 11.5 0 20.4-7.6 1.6-1.4 3-2.9 1.3-1.4 2.1-1.4 1.3 0 1.9 1.3v0.1l0.1 0.6q0 1.5-5.4 6.1-2.1 1.8-4.2 3.1-9 5.4-19.5 5.4-14.7 0-24.4-8.9-10.6-9.7-10.6-26.9 0-19.8 13.9-29.5 9.1-6.3 20.9-6.3 5.9 0 10.9 2.2 5.3 2.4 8.9 2.4 3 0 3.3-2.8 0.2-1.8 1.8-1.8 1.7 0.6 1.7 3.3zm-3.5 10.2v-6.1q-1.1 0.6-3.2 0.6l-1.7-0.1q3.8 4.1 4.9 5.6zm-35.1-7.7v-0.1q-11.5 3.8-16.4 14.9-2.9 6.7-2.9 15.3 0 18.6 13 27 3.5 2.3 7.8 3.7-10.4-8.4-10.4-30.6 0-19.1 7.6-28.8z"/>
		</g>
	</g>
</svg>