<svg version="1.2" xmlns="http://www.w3.org/2000/svg" viewBox="0 0 686 98" width="686" height="98">
  <defs>
    <clipPath clipPathUnits="userSpaceOnUse" id="a">
      <path d="M-641-488h2098V728H-641z"/>
    </clipPath>
  </defs>
  <g clip-path="url(#a)">
    <path d="M61 11 23.8 71.7h14q12.7 0 19.6-9.2 3-3.9 3.9-8.4.4-2.5 1.4-2.8l.6-.1q1.4 0 1.7 1.7l-2.7 19.5q-.4 2.3-1.1 2.6h-.1q-.5.2-2.2.2H8.1q-2.9 0-3.2-1.2l-.1-.6q0-.5.9-1.8l37.2-60.7h-8q-9.8 0-16 3.9t-7.3 10.5q-.4 1.5-1.7 1.5-1.5-.4-1.8-1.9l.2-1.3 1.5-13.3q.3-2.3 1-2.6.4-.2 1.4-.3h46.4q2.7 0 3.2 1v.1l.1.7q0 .5-.9 1.8m-14-.1L9.6 71.7h10.1L57 10.9zm-33.7 0-.5 4.4q3.3-3 5.7-4.3v-.1zm39 60.7h6.8L60 65q-3.4 4.2-7.7 6.6m108.8-55.4h-26.8q-11.8 0-19.6 8-6.8 7.1-6.8 16.8 0 10.6 8.1 17.8 7.5 6.8 18.4 6.8h26.7q3.2 0 3.3 2 0 2-3.3 2h-27q-12.4 0-21.3-8.3-8.9-8.4-8.9-20.4 0-12.3 9.4-20.7 8.8-8 20.7-8h27.1q3.2 0 3.3 2 0 2-3.3 2m-51.9 68.6h51.9q3.2 0 3.3 2 0 2-3.3 2h-51.9q-3.2 0-3.3-2 0-2 3.3-2m138.4-8.7q2.9 6.5 9.7 9.3 3.4 1.4 7.3 1.4 2.7 0 5.4-.7l1-.2q1.4 0 1.7 1.8 0 1.2-2.1 2l-.1.1h-.1l-.5.2q-7.7 2.9-15.5 2.9-13.1 0-21.5-9.5-3.1-3.4-5-7.8-12.8-3.4-19.3-14.1-5.1-8.6-5.1-20.2 0-19.4 13.4-29.2 9.2-6.6 21.9-6.6 15.2 0 25 9.2 6.7 6.5 9 16.3 1.2 4.8 1.2 10.4 0 19.2-13.2 28.9-5.8 4.3-13.2 5.8m-22.5-64.3-.1-.1q-9.6 3.6-14.4 12.9-3.6 7.2-3.6 16.8 0 18.1 12.6 26.7 2.6 1.9 5.6 3-7.7-9.2-7.7-29.8t7.6-29.5m27.4-.1-.1.1q7.6 8.9 7.6 29.6 0 20.5-7.7 29.7 10.3-4 15.1-14.1 3.1-6.7 3.1-15.7 0-17.9-12.1-26.6-2.9-2-5.9-3m-13.7 61.9q14.9 0 17.4-23.4.4-4.2.4-8.9 0-27-12.7-31.4-2.4-.9-5.1-.9-15 0-17.5 23.4-.4 4.2-.4 9 0 26.9 12.7 31.3 2.4.9 5.2.9m-6.6 3q6.1 10.5 17.8 12.5 2.2.4 4.4.4 3.1 0 3.1-.2l-1.1-.5q-8.6-3.5-12.3-12-2.8.3-5.3.3-3.8 0-6.6-.5m137.9-60.4h-26.8q-11.8 0-19.6 8-6.8 7.1-6.8 16.8 0 10.6 8.1 17.8 7.5 6.8 18.4 6.8h26.7q3.2 0 3.3 2 0 2-3.3 2h-27q-12.4 0-21.3-8.3-8.9-8.4-8.9-20.4 0-12.3 9.4-20.7 8.8-8 20.7-8h27.1q3.2 0 3.3 2 0 2-3.3 2m-51.9 68.6h51.9q3.2 0 3.3 2 0 2-3.3 2h-51.9q-3.2 0-3.3-2 0-2 3.3-2m117.6-40.7v22q0 4.1 1.2 4.9 1 .7 4.8.7 2.8 0 2.8 1.7-.9 1.7-3.3 1.8h-27.1q-3 0-3.3-1.2l-.1-.6q0-1.7 2.7-1.7 4.6 0 5.5-1.3.5-.8.6-2.8V16.5q0-4.2-1.3-4.9-1-.7-4.8-.7-2.7 0-2.7-1.7.8-1.7 3.4-1.8h31.1q12.8 0 20.3 5.9l.1.1q4 3.4 5.3 8.3.5 1.9.5 4.2 0 12.8-13.9 16.3-1.5.5-3.4.8 4 6.6 12.3 18.3 7.3 9.7 10.9 10.4 1.4.3 1.4 1.7-.9 1.7-3.2 1.8h-13.7q-2.4 0-2.9-.7l-.4-.5-4.4-6.9-14.9-23zm19.1-4.8Q467 37.1 468 27.9l.1-2q0-9.6-11.1-13.2l-2.8-.7q3.8 4.8 3.8 14t-3.1 13.3m-19.1-23.1v24.5q11.6 0 15.1-2.4.9-.7 1.6-1.7 2-2.9 2-10.6 0-11.5-6.1-14-2.5-1.1-6.4-1.1-5.9 0-6.2 4.2zm-13.4 55.6h10.8q-.8-1.8-.8-5.5V15.9q0-3.4 1.3-5h-11.3q.8 1.8.8 5.4v50q0 3.7-.8 5.5m21.1-27.7 17.8 27.7h9.6q-7.3-7.4-20.4-28.3-3 .4-5.2.4zm130.3-27.9H547q-11.8 0-19.6 8-6.8 7.1-6.8 16.8 0 10.6 8.1 17.8 7.5 6.8 18.4 6.8h26.7q3.2 0 3.3 2 0 2-3.3 2h-27q-12.4 0-21.3-8.3-8.9-8.4-8.9-20.4 0-12.3 9.4-20.7 8.8-7.9 20.7-7.9h27.1q3.2 0 3.3 1.9 0 2-3.3 2m-52 68.6h52q3.2 0 3.3 2 0 2-3.3 2h-52q-3.1 0-3.2-2 0-2 3.2-2M678 8.8v16.5q-.4 3-1.7 3.3-1.3 0-1.9-1.9-2.7-8.5-11.6-13.9-6-3.8-11.1-3.8-8.8 0-13.6 10.7-4.1 8.6-4.1 21.8 0 27.4 15.4 30.5 1.7.4 3.8.4 11.5 0 20.4-7.6 1.6-1.4 3-2.9 1.3-1.4 2.1-1.4 1.3 0 1.9 1.3v.1l.1.6q0 1.5-5.4 6.1-2.1 1.8-4.2 3.1-9 5.4-19.5 5.4-14.7 0-24.4-8.9-10.6-9.7-10.6-26.9 0-19.8 13.9-29.5 9.1-6.3 20.9-6.3 5.9 0 10.9 2.2 5.3 2.4 8.9 2.4 3 0 3.3-2.8.2-1.8 1.8-1.8 1.7.6 1.7 3.3M674.5 19v-6.1q-1.1.6-3.2.6l-1.7-.1q3.8 4.1 4.9 5.6m-35.1-7.7v-.1Q627.9 15 623 26.1q-2.9 6.7-2.9 15.3 0 18.6 13 27 3.5 2.3 7.8 3.7-10.4-8.4-10.4-30.6 0-19.1 7.6-28.8z" style="fill:#8080ff"/>
  </g>
</svg>
