<svg version="1.2" xmlns="http://www.w3.org/2000/svg" viewBox="0 0 402 402" width="402" height="402">
	<title>xy</title>
	<defs>
		<clipPath clipPathUnits="userSpaceOnUse" id="cp1">
			<path d="m-750-361h2098v1216h-2098z"/>
		</clipPath>
	</defs>
	<style>
		.s0 { opacity: .7;fill: none;stroke: #0000cc;stroke-linecap: round;stroke-linejoin: round;stroke-width: 2.5 } 
		.s1 { opacity: .7;fill: #0000cc } 
		.s2 { fill: #0000cc } 
	</style>
	<g id="Clip-Path" clip-path="url(#cp1)">
		<g>
			<path class="s0" d="m9.6 269.8l2.6 0.9m0 0l4.1 1.2 4.1 1.1m0 0l4.1 1 4.1 0.8 4.1 0.8 4 0.6m0 0l4.1 0.5 4.1 0.3 4.1 0.3 4.1 0.1h4.1l4.1-0.1 4.1-0.3 4.1-0.4 4.1-0.5 4.1-0.6 4.1-0.7 4.1-0.9 4.1-1 4.1-1.1 4.1-1.2 4.1-1.4 4.1-1.5 4.1-1.6 4.1-1.7 4.1-1.9 4.1-2 4.1-2.1 4.1-2.2 4.1-2.3 4.1-2.5 4.1-2.6 4.1-2.7 4.1-2.8 4.1-3 4.1-3.1 4.1-3.2 4.1-3.3m0 0l4.1-3.5 4.1-3.6 4.1-3.7 4.1-3.8 4.1-3.9 4.1-4.1 4.1-4.2 4.1-4.3 4.1-4.4 4.1-4.6 4-4.7 4.1-4.8 4.1-4.9 4.1-5.1 4.1-5.2 4.1-5.3m0 0l4.1-5.4 4.1-5.5 4.1-5.7 4.1-5.8 4.1-5.9 4.1-6.1 4.1-6.1 4.1-6.3m0 0l4.1-6.4 4.1-6.6m0 0l4.1-6.6m0 0l3.7-6.1"/>
			<path class="s1" d="m9.6 4.8l-4.3 17h3v346.5c0 0.3 0.1 0.6 0.4 0.9 0.2 0.2 0.5 0.3 0.9 0.3 0.3 0 0.6-0.1 0.9-0.3 0.2-0.3 0.3-0.6 0.3-0.9v-346.5h3z"/>
			<path class="s1" d="m356.1 364v3h-346.5c-0.4 0-0.7 0.2-0.9 0.4-0.3 0.2-0.4 0.6-0.4 0.9 0 0.3 0.1 0.6 0.4 0.9 0.2 0.2 0.5 0.3 0.9 0.3h346.5v3l17-4.2z"/>
			<path class="s2" d="m392 388.5l-0.9 3.7q-0.5 1.8-0.5 2.3 0 1.4 1 1.7 0.3 0.1 0.5 0.1 1.4 0 2.5-1.3 0.7-0.9 1.1-2.2 0.1-0.3 0.4-0.3 0.3 0 0.3 0.3 0 0.6-0.8 1.9-1.5 2.2-3.5 2.2-1.9 0-2.7-1.5-0.2-0.3-0.2-0.5-0.7 1.3-1.8 1.8-0.5 0.2-1.1 0.2-1.6 0-2.2-0.9-0.3-0.4-0.3-0.9 0-1 0.8-1.4 0.3-0.1 0.7-0.1 0.8 0 0.9 0.6l0.1 0.3q0 0.9-0.9 1.4-0.2 0-0.4 0.1 0.6 0.3 1.3 0.3 1.5 0 2.3-1.9l0.3-0.9q1.5-5.5 1.5-6.4-0.2-1.7-1.5-1.8-1.4 0-2.6 1.4v0.1q-0.4 0.5-0.7 1.2l-0.2 0.7-0.1 0.1q-0.1 0.3-0.4 0.3-0.3 0-0.3-0.3 0-0.6 0.9-1.9 1.4-2.2 3.5-2.2 2 0 2.9 2 0.8-1.6 2.3-2h0.5q1.6 0 2.3 0.9 0.2 0.4 0.2 0.9 0 1.1-1 1.5-0.2 0-0.4 0-0.9 0-1-0.7l-0.1-0.2q0-0.8 0.8-1.3 0.3-0.1 0.5-0.2-0.5-0.3-1.3-0.3-1.8 0-2.6 2.8zm-359.9-368.1l-2.6 10.3q-0.7 2.7-2.9 4.3-1.6 1.2-3.4 1.2-1.8 0-2.6-1.2-0.3-0.5-0.3-1.1 0-1.4 1.1-1.7l0.4-0.1q0.9 0 1 0.8v0.2q0 0.6-0.5 1.1-0.4 0.3-1.2 0.3 0.5 1.2 2.1 1.2 1.7 0 2.9-1.7 1.1-1.5 1.7-3.9l0.1-0.3q-1.2 1.2-2.7 1.2-2.2 0-3-1.6-0.3-0.7-0.3-1.6 0-1.5 1.4-5.3l0.1-0.4q0.5-1.2 0.5-1.9 0-0.8-0.7-0.8-1.5 0-2.4 2.4v0.1l-0.3 0.8q-0.3 0.5-0.4 0.5-0.3 0-0.3-0.3 0-0.5 0.5-1.7 1.2-2.4 3-2.4 1.4 0 2 1.2 0.2 0.5 0.2 1 0 0.6-0.5 1.9-1.4 3.6-1.4 5.3 0 2.2 1.7 2.2 1.6 0 2.7-1.7 0.3-0.4 0.3-0.6l1.3-4.8q0.1-0.9 0.5-2.2 0.3-1.2 0.4-1.5 0.3-0.5 0.9-0.5 0.7 0.1 0.8 0.7 0 0.2-0.1 0.6zm273 94.7l-2.6 10.3q-0.6 2.6-2.9 4.3-1.6 1.2-3.4 1.2-1.8 0-2.6-1.3-0.3-0.5-0.3-1.1 0-1.3 1.1-1.7h0.5q0.8 0 0.9 0.7l0.1 0.2q0 0.6-0.6 1.1-0.4 0.4-1.1 0.4 0.4 1.1 2 1.1 1.7 0 3-1.7 1-1.4 1.6-3.8l0.1-0.4q-1.2 1.2-2.7 1.2-2.2 0-2.9-1.6-0.4-0.7-0.4-1.6 0-1.5 1.4-5.3l0.2-0.3q0.4-1.3 0.4-1.9 0-0.9-0.6-0.9-1.5 0-2.5 2.5l-0.3 0.9q-0.3 0.4-0.4 0.4-0.3 0-0.3-0.2 0-0.5 0.5-1.7 1.2-2.5 3-2.5 1.5 0 2 1.2 0.3 0.5 0.3 1 0 0.6-0.6 2-1.4 3.5-1.4 5.3 0 2.1 1.7 2.1 1.6 0 2.7-1.6 0.3-0.4 0.4-0.6l1.2-4.9q0.2-0.9 0.5-2.2 0.3-1.1 0.4-1.4 0.3-0.6 0.9-0.6 0.7 0.1 0.8 0.7 0 0.3-0.1 0.7zm27.1 1.4h-16.1q-0.9 0-0.9-0.5 0-0.6 0.9-0.6h16.1q0.9 0 0.9 0.6 0 0.5-0.9 0.5zm0 5.3h-16.1q-0.9 0-0.9-0.6 0-0.5 0.9-0.5h16.1q0.9 0 0.9 0.5 0 0.6-0.9 0.6zm19.9-7.3l-1.6 8.6q-0.3 1.7-1 3.8-0.3 0.8-0.5 1.4-1 2-2.4 2.4-0.3 0.2-0.7 0.2-1.3 0-2-0.9-0.3-0.4-0.3-1 0-1.1 0.9-1.5 0.3-0.1 0.6-0.1 0.8 0 1 0.7v0.2q0 1-0.8 1.3-0.3 0.2-0.7 0.2 0.5 0.5 1.3 0.5 1.2 0 1.9-2.7l0.3-1.6 0.2-0.8 2-10.7h-1.8q-0.7 0-0.7-0.2h-0.1v-0.1q0-0.4 0.5-0.5h2.2q0.7-3.4 0.9-4.2 0.8-2.7 2.9-3.1l0.5-0.1q1.4 0 2.1 0.9 0.3 0.4 0.3 1 0 1.1-0.9 1.5-0.3 0.1-0.6 0.1-0.8 0-1-0.7v-0.3q0-0.8 0.8-1.2 0.3-0.2 0.7-0.2-0.5-0.5-1.4-0.5-0.8 0-1.2 0.9-0.2 0.4-0.7 2.8l-0.5 3.1h2.2q0.7 0 0.7 0.3 0 0.5-0.4 0.5zm15.2 17.3q0 0.3-0.3 0.3-0.3 0-1.4-1.1-1.7-1.7-2.8-4-1.8-3.7-1.8-8.4 0-4.6 1.7-8.2 1.4-3 3.6-4.8 0.5-0.5 0.7-0.5 0.3 0 0.3 0.3 0 0.1-0.4 0.4-4.3 4.5-4.3 12.8 0 8.3 4.2 12.6 0.5 0.5 0.5 0.6zm10.6-14.6l-0.9 3.7q-0.5 1.8-0.5 2.4 0 1.4 1 1.7 0.2 0 0.5 0 1.3 0 2.4-1.3 0.8-0.9 1.2-2.2 0.1-0.3 0.3-0.3 0.4 0 0.4 0.3 0 0.7-0.9 1.9-1.4 2.2-3.5 2.2-1.8 0-2.6-1.5-0.2-0.2-0.3-0.5-0.6 1.3-1.8 1.8-0.5 0.2-1 0.2-1.6 0-2.3-0.9-0.3-0.4-0.3-0.8 0-1 0.9-1.4 0.3-0.2 0.6-0.2 0.8 0 1 0.7v0.2q0 1-0.9 1.4-0.2 0.1-0.3 0.1 0.5 0.3 1.3 0.3 1.4 0 2.3-1.9l0.3-0.9q1.4-5.5 1.4-6.4-0.1-1.7-1.4-1.8-1.4 0-2.6 1.4v0.1q-0.4 0.5-0.7 1.2l-0.3 0.7v0.1q-0.1 0.3-0.4 0.3-0.3 0-0.3-0.2 0-0.7 0.8-2 1.5-2.2 3.5-2.2 2.1 0 2.9 2.1 0.9-1.7 2.3-2l0.6-0.1q1.6 0 2.2 0.9 0.3 0.4 0.3 0.9 0 1.1-1 1.5-0.3 0.1-0.5 0.1-0.8 0-1-0.8v-0.2q0-0.8 0.8-1.3 0.2-0.1 0.5-0.1-0.6-0.4-1.3-0.4-1.9 0-2.6 2.9zm14.2 1.4q0 4.5-1.7 8.2-1.4 3-3.6 4.8-0.6 0.5-0.7 0.5-0.3 0-0.3-0.3 0-0.1 0.3-0.5 4.4-4.4 4.4-12.7 0-8.3-4.1-12.5l-0.1-0.1q-0.5-0.5-0.5-0.7 0-0.2 0.3-0.2 0.3 0 1.4 1.1 1.7 1.7 2.8 3.9 1.8 3.7 1.8 8.5z"/>
		</g>
	</g>
</svg>