<svg version="1.2" xmlns="http://www.w3.org/2000/svg" viewBox="0 0 1015 504" width="1015" height="504">
  <defs>
    <clipPath clipPathUnits="userSpaceOnUse" id="a">
      <path d="m1618.77-290-2.86 1214.92-2097.98-4.93 2.85-1214.92z"/>
    </clipPath>
  </defs>
  <g clip-path="url(#a)">
    <path d="m35.6 48.3-3.4 13.6q-1.7 6.7-1.7 8.7 0 5.1 3.6 6.2.8.3 1.8.3 4.9 0 9-4.9 2.7-3.2 4.2-8 .3-1.1 1.3-1.1 1.2 0 1.2 1 0 2.5-3.1 7.1-5.4 8.1-12.8 8.1-6.7 0-9.8-5.7-.6-.9-.9-1.9-2.4 4.8-6.5 6.6-1.9.9-3.9.9-5.9 0-8.3-3.5-1-1.2-1-3 0-3.7 3.2-5.2 1.1-.5 2.3-.5 2.9 0 3.5 2.4l.1 1q0 3.4-3.3 5-.6.3-1.3.4 2 1.2 4.9 1.3 5.3 0 8.3-7.1l1.1-3.2q5.4-20.2 5.4-23.5-.5-6.2-5.3-6.7-5.1 0-9.4 5.2v.1l-.1.1q-1.5 2-2.7 4.6l-.9 2.4-.2.5q-.2 1.1-1.3 1.1-1.2 0-1.2-1 0-2.4 3.2-7.1 5.4-8.1 12.8-8.1 7.6.1 10.7 7.6 3.2-6.1 8.4-7.3l2-.2q5.8 0 8.2 3.3 1 1.4 1 3.2 0 4.1-3.7 5.5-.9.3-1.7.3-3 0-3.6-2.7l-.1-.8q0-3 2.9-4.6.9-.5 1.8-.7-2-1.3-4.9-1.3-6.7 0-9.5 10.4zm190.6-11.6-59.1-.1q-3.2 0-3.4-2 0-2 3.3-2l59.3.2q3.1 0 3.2 1.9 0 2-3.3 2m0 38.4-59.3-.1q-3.2-.1-3.3-2 0-2 3.4-2l59.1.1q3.2 0 3.3 2 0 2-3.2 2m0-19.2-59.3-.1q-3.1 0-3.2-2 0-2 3.2-2l59.3.1q3.2.1 3.3 2 0 2-3.3 2m144.9-14.3q.5-3.4 3.1-4.1.5-.2 1.1-.2 2.5 0 2.8 2.6 0 .6-.7 3.4l-3.6 13.8-2.2 8.9q-1.3 5.2-1.3 7.4 0 4.5 3 4.5 3.7 0 6.3-7.9l1.2-4.3q.8-1.7 1.4-1.8 1.2 0 1.2 1 0 1.5-1.8 6.9l-1.2 2.9q-2.8 5.4-7.3 5.4-5.6 0-8-4.8-.7-1.2-1-2.7-6.3 7.4-12.9 7.4-7.4 0-11-6.7-2.1-4-2.1-9.1 0-10.7 7.4-19.8 7-8.3 15.1-9.1h1.4q6 0 9.1 6.3m-6.5 25.6 5-19.4.3-1.7q0-2-1.8-5-2.1-3.7-6-3.7-5.2 0-9.8 6.7l-1.7 2.8q-2.9 5.7-4.9 16.3-.6 3.4-.6 5.3 0 6.8 3.7 8.8 1.1.6 2.6.6 5.5 0 11.2-7 1.4-1.6 1.9-3.3v-.1zm42.3-17.6-.1 38.8q0 2.1.8 2.7 1.2.7 5.6.7h2.3v2.1q-2.5-.2-11.3-.2t-11.2.2v-2.2h2.2q5.4 0 6.1-1.2l.1-.1q.3-.5.3-2l.1-35.8q-3.7 1.8-9.1 1.7v-2.1q8.3 0 12.6-4.4 1.3 0 1.5.5zm244.9 53.8q0 1-.9 1-1.2 0-5.3-4-6.1-6.2-10.1-14.6-6.6-13.5-6.5-30.9 0-16.7 6.3-30.1 5.2-11 13.1-17.6 2.1-1.7 2.7-1.7 1 0 1 1 0 .5-1.3 1.7-16 16.2-16.1 46.7 0 30.6 15.5 46.4 1.6 1.6 1.6 2.1m16.8-57.7q0-3.8-1.5-4.7-1.1-.7-4.2-.8h-2v-3.1l14-1.1-.1 10.4q4.7-10.4 14.7-10.3 11.6 0 13.2 9.7 3-6.7 9.3-8.9 2.4-.8 5-.8 7.5.1 10.4 3.7 2.7 3.1 3 8.4l.1 6.8-.1 18.9q.1 2.3 2.9 2.7 1.2.2 4.8.2v3.1l-11.1-.3-11.1.3v-3.1q5.8 0 6.8-.9l.2-.2q.7-.8.7-3.3V49.3q.1-9.8-5.6-10.8-.8-.2-1.7-.2-6 0-10.1 5.2-3.2 4.3-3.3 10.6v18.2q0 3.4 1.6 4 1.1.5 6.1.5v3l-11.1-.3-11.2.3v-3.1q5.9 0 6.9-.9l.2-.2q.7-.7.7-3.3V49.2q0-9.8-5.6-10.8-.8-.2-1.7-.2-6 0-10.1 5.3-3.3 4.2-3.3 10.5v18.2q0 3.4 1.6 4 1 .5 6.1.5v3.1l-11.1-.3-11.2.2v-3q5.9 0 6.9-.9l.1-.2q.7-.8.8-3.4zm118.1 13.2q0 10.1-7.5 16.8-6.3 5.4-14.5 5.4-9.5-.1-16-7.2-5.9-6.4-5.8-15.1 0-10.1 7.2-17 6.3-6.2 14.8-6.1 9.6 0 16.1 7.6 5.7 6.7 5.7 15.6m-21.9 19.7q6.6 0 10.5-5.5l1-1.8q2.2-4.3 2.2-13.3 0-9.4-2.5-13.7-4.3-6.1-11.2-6.5-6.1 0-10.1 5-.7.8-1.2 1.6-2.4 4.4-2.4 13.6 0 9.6 2.4 13.9 4.2 6.5 11.3 6.7m65.2-3.9q-5.2 6.5-13.3 6.5-9.1 0-15.5-7.3-5.5-6.4-5.5-15.1.1-10.3 7.8-17 6.2-5.4 14.4-5.4 7.5 0 12.4 6.1l.1-21.3q0-3.9-1.4-4.8h-.1q-1.3-.8-6.2-.8v-3l14.2-1.1-.1 60q0 3.9 1.5 4.8h.1q1.3.8 6.1.8v3.1l-14.6 1zm.1-26.5q0-2-.9-3.3l-.2-.4q-4-5.9-10.7-5.9-6.9 0-11.2 6.3-3 4.7-3.1 14 0 9.3 2.9 13.8 3.9 6.3 10.4 6.3 7.1.1 11.5-6.5l.2-.4q1-2 1-3.6zm59.1 26.2 5.8-22.8q1.6-6.3 1.6-8.3 0-4.6-3.1-4.6-4 0-6.6 9.4l-.6 2.4q-1.1 2.2-1.7 2.3-1.2 0-1.2-1 0-1.6 2-7.1v-.1l.1-.1v-.2l.9-2.1q2.2-4 4.5-5 1.4-.6 2.9-.6 5.6 0 8 4.6.9 1.8 1.1 4 6.4-8.6 15.5-8.6 8.5 0 10.8 6.6.6 1.8.5 4 0 5.1-6 21.8-1.8 4.3-1.8 7-.1 3.3 2.3 3.3 6.6 0 10.2-12.3.5-1.6.9-1.7v-.1h.5q1.2.1 1.2 1 0 1.7-2.1 6.3-4.2 9-10.9 8.9-5 0-7.2-4.2-.9-1.8-.9-3.9 0-2 1-4.5 6.5-17.3 6.5-23.1 0-6.9-5.3-6.9-8.9 0-15 9.9l-1.2 2.1-1.3 5-1.7 6.6-2.2 8.9-1.9 7.3q-.9 2.6-3.6 2.8-2.5-.5-2.9-2.7zm71.1-23.5-.1 38.9q0 2 .8 2.6 1.2.7 5.7.7h2.2v2.1q-2.5-.2-11.3-.2t-11.2.2V93l2.2.1q5.4 0 6.1-1.3h.1q.3-.6.3-2.1l.1-35.8q-3.6 1.8-9.1 1.8v-2.2q8.3 0 12.6-4.4 1.3 0 1.5.5v.1zm42.9 4.8q0 16.7-6.3 30.2-5.2 10.9-13.1 17.5-2.1 1.7-2.7 1.7-1 0-1-1 0-.5 1.3-1.6 16-16.2 16.1-46.8 0-30.2-14.8-45.7l-.5-.5q-1.8-1.8-1.8-2.3 0-1 1-1 1.1 0 5.2 4.1 6.1 6.1 10.2 14.5 6.5 13.5 6.4 30.9M35.4 189.9 32 203.5q-1.7 6.7-1.7 8.7 0 5.1 3.6 6.2.8.3 1.8.3 5 0 9-4.9 2.7-3.2 4.2-8 .3-1.1 1.3-1.1 1.2 0 1.2 1 0 2.5-3.1 7.1-5.4 8.1-12.8 8.1-6.7 0-9.8-5.7-.6-.9-.9-1.8-2.4 4.7-6.5 6.6-1.9.9-3.9.9-5.9-.1-8.3-3.5-1-1.3-1-3.1 0-3.7 3.2-5.1 1.1-.6 2.3-.6 3 0 3.5 2.5l.1.9q0 3.4-3.3 5-.6.3-1.3.4 2 1.3 4.9 1.3 5.3 0 8.3-7l1.1-3.3q5.4-20.2 5.4-23.5-.5-6.2-5.3-6.7-5.1 0-9.4 5.3v.1l-.1.1q-1.5 1.9-2.7 4.5l-.9 2.4-.2.6q-.2 1.1-1.3 1.1-1.2 0-1.2-1 .1-2.5 3.2-7.2 5.4-8 12.8-8 7.6 0 10.7 7.5 3.2-6.1 8.4-7.3l2-.2q5.8 0 8.2 3.3 1 1.4 1 3.3 0 4-3.7 5.4-.9.3-1.7.3-3 0-3.6-2.7l-.1-.8q0-2.9 2.9-4.6.9-.5 1.9-.7-2.1-1.3-5-1.3-6.7 0-9.5 10.5zM226 178.2l-59.1-.1q-3.2 0-3.4-2 0-2 3.3-2l59.3.2q3.2 0 3.2 2 0 1.9-3.3 1.9m0 38.4-59.3-.1q-3.2 0-3.3-2 0-2 3.4-2l59.1.2q3.2 0 3.4 1.9 0 2-3.3 2m0-19.2-59.3-.1q-3.1 0-3.2-2 0-2 3.2-2l59.3.2q3.2 0 3.3 2 0 1.9-3.3 1.9m144.9-14.3q.5-3.3 3.1-4.1.5-.2 1.1-.2 2.5 0 2.8 2.7 0 .6-.7 3.3l-3.6 13.9-2.2 8.9q-1.3 5.1-1.3 7.3 0 4.5 3 4.5 3.8 0 6.3-7.9l1.2-4.3q.8-1.7 1.4-1.8 1.2 0 1.2 1 0 1.5-1.8 6.9l-1.2 2.9q-2.8 5.4-7.3 5.4-5.6 0-8-4.8-.7-1.1-1-2.6-6.3 7.4-12.9 7.4-7.4-.1-11-6.8-2.1-4-2.1-9.1 0-10.7 7.5-19.8 6.9-8.3 15-9l1.4-.1q6 0 9.1 6.3m-6.5 25.6 5-19.3.3-1.7q0-2.1-1.8-5.1-2.1-3.6-6-3.6-5.1-.1-9.8 6.7l-1.7 2.7q-2.9 5.8-4.9 16.3-.6 3.4-.6 5.4 0 6.7 3.7 8.7 1.1.6 2.6.6 5.6 0 11.2-7 1.4-1.6 1.9-3.3v-.1zm53 14.7-2 12.1-25.7-.1q0-1.7.4-2.2l.4-.4 13.3-14.8q7.3-8.1 7.3-15.2 0-6.2-3.7-9.4l-.1-.1q-2.3-1.8-5.5-1.8-4.9-.1-7.9 4.2-.9 1.3-1.4 2.8l.9-.1q2.8 0 3.5 2.5v.1q.1.5.1 1 0 2.8-2.6 3.6l-1 .1q-2.5 0-3.4-2.2-.2-.7-.2-1.7 0-5.3 4.1-9.1 3.7-3.4 8.9-3.4 7.6 0 11.8 5.2 2.4 2.9 2.7 7l.1 1.3q0 5-3.8 9.6-2 2.3-6.3 6.2l-4.2 3.7-.7.7-7.4 7.1h12.5q6.1 0 6.6-.5.7-1 1.5-6.2zm234.3 21.5q0 1-1 1-1.2 0-5.2-4.1-6.2-6.1-10.2-14.5-6.5-13.5-6.5-30.9.1-16.7 6.3-30.2 5.2-10.9 13.1-17.5 2.1-1.7 2.7-1.7 1 0 1 1 0 .5-1.3 1.7-16 16.1-16 46.7-.1 30.6 15.4 46.3 1.7 1.7 1.7 2.2m16.8-57.7q0-3.9-1.5-4.8-1.2-.7-4.3-.8h-2l.1-3 13.9-1.1v10.4q4.7-10.4 14.7-10.4 11.5.1 13.1 9.8 3-6.8 9.3-8.9 2.4-.8 5.1-.8 7.4 0 10.4 3.7 2.6 3.1 2.9 8.4l.1 6.7v18.9q.1 2.4 2.8 2.8 1.2.2 4.9.2v3.1l-11.1-.4-11.2.3v-3q5.8 0 6.8-.9l.2-.2q.7-.8.7-3.4l.1-23q0-9.8-5.6-10.8-.8-.2-1.7-.2-6.1 0-10.1 5.2-3.3 4.2-3.3 10.6l-.1 18.2q0 3.3 1.6 3.9 1.1.5 6.2.5l-.1 3.1-11-.3-11.2.3v-3.1q5.8 0 6.8-.9l.2-.2q.7-.8.7-3.3l.1-23.1q0-9.8-5.7-10.8-.7-.2-1.6-.2-6.1 0-10.1 5.2-3.3 4.3-3.3 10.6l-.1 18.2q0 3.4 1.6 4 1.1.5 6.1.5v3l-11.1-.3-11.1.3v-3.1q5.8 0 6.8-.9l.2-.1q.7-.8.7-3.4zm118.2 13.1q-.1 10.2-7.6 16.8-6.2 5.4-14.5 5.4-9.5 0-16-7.1-5.8-6.5-5.8-15.2 0-10.1 7.3-17 6.2-6.1 14.7-6.1 9.6.1 16.2 7.7 5.7 6.6 5.7 15.5m-22 19.8q6.7 0 10.5-5.6l1-1.7q2.2-4.4 2.3-13.3 0-9.5-2.6-13.7-4.2-6.2-11.2-6.5-6.1 0-10.1 4.9-.7.8-1.2 1.7-2.4 4.4-2.4 13.6 0 9.5 2.5 13.9 4.1 6.4 11.2 6.7m65.2-3.9q-5.2 6.5-13.3 6.5-9.1-.1-15.4-7.3-5.5-6.4-5.5-15.2 0-10.2 7.7-16.9 6.3-5.5 14.4-5.5 7.5.1 12.5 6.2v-21.4q0-3.8-1.4-4.7h-.1q-1.2-.8-6.2-.8V154l14.3-1-.2 60q0 3.9 1.5 4.8h.1q1.4.8 6.1.8v3l-14.5 1.1zm0-26.5q0-2-.8-3.3l-.2-.4q-4.1-5.9-10.7-5.9-6.9-.1-11.2 6.3-3.1 4.7-3.1 14t2.8 13.8q4 6.3 10.4 6.3 7.1 0 11.5-6.5l.2-.4q1.1-2.1 1.1-3.6zm59 26.2 5.8-22.8q1.6-6.4 1.6-8.3 0-4.6-3-4.6-4.1 0-6.7 9.4l-.6 2.4q-1.1 2.1-1.7 2.2-1.2 0-1.2-1 0-1.5 2-7.1v-.1l.1-.1v-.2l.9-2q2.2-4 4.5-5 1.4-.7 3-.7 5.5 0 8 4.7.9 1.8 1.1 4 6.3-8.6 15.4-8.6 8.5 0 10.8 6.5.6 1.8.6 4.1 0 5-6.1 21.7-1.8 4.4-1.8 7.1 0 3.2 2.4 3.2 6.5 0 10.1-12.2.5-1.6 1-1.7v-.1h.5q1.2 0 1.2 1 0 1.7-2.1 6.2-4.3 9-10.9 9-5.1 0-7.3-4.3-.8-1.7-.8-3.8 0-2 1-4.6 6.4-17.3 6.5-23 0-6.9-5.4-6.9-8.9-.1-14.9 9.8l-1.2 2.2-1.3 4.9-1.7 6.7-2.2 8.9-1.9 7.3q-.9 2.5-3.7 2.7-2.5-.5-2.9-2.6zm81.8 8.8-2 12H943q0-1.8.5-2.3l.3-.3 13.3-14.8q7.3-8.1 7.4-15.3 0-6.1-3.8-9.3v-.1h-.1q-2.2-1.9-5.4-1.9-5 0-8 4.3-.8 1.2-1.4 2.8l.9-.1q2.8 0 3.6 2.5v.1q.1.4.1 1 0 2.8-2.7 3.5l-.9.2q-2.6 0-3.4-2.2-.3-.8-.3-1.7 0-5.4 4.1-9.2 3.7-3.3 8.9-3.3 7.6 0 11.8 5.1 2.5 3 2.8 7.1l.1 1.2q0 5.1-3.9 9.7-2 2.3-6.2 6.2l-4.3 3.7-.7.6-7.3 7.1 12.5.1q6.1 0 6.5-.6.7-.9 1.6-6.1zm32.2-27.5q0 16.7-6.3 30.2-5.2 10.9-13.1 17.6-2.1 1.6-2.7 1.6-1 0-1-1 0-.5 1.3-1.6 16-16.2 16-46.8.1-30.2-14.7-45.7l-.5-.5q-1.9-1.8-1.9-2.3 0-1 1-1 1.2 0 5.3 4.1 6.1 6.1 10.1 14.6 6.5 13.4 6.5 30.8m-802.6 90.2v8.2H192l.1-8.2zm-.1 30.2v8.2H192v-8.2zm-.1 30.1v8.2h-8.2v-8.2zM34.7 442.5 31.3 456q-1.7 6.7-1.7 8.7 0 5.2 3.7 6.3.8.3 1.8.3 4.9 0 9-5 2.7-3.1 4.2-8 .3-1.1 1.3-1.1 1.1 0 1.1 1 0 2.5-3 7.2-5.4 8-12.8 8-6.8 0-9.8-5.6-.6-.9-.9-1.9-2.4 4.7-6.6 6.6-1.8.9-3.8.9-6 0-8.3-3.5-1-1.3-1-3.1 0-3.6 3.2-5.1 1.1-.6 2.2-.6 3 0 3.6 2.5l.1 1q0 3.3-3.4 4.9-.6.3-1.3.4 2.1 1.3 5 1.3 5.2 0 8.3-7l1.1-3.3q5.4-20.1 5.4-23.5-.6-6.1-5.3-6.6-5.2 0-9.4 5.2v.1l-.1.1q-1.5 2-2.7 4.5l-.9 2.4-.2.6q-.2 1.1-1.3 1.1-1.2 0-1.2-1 0-2.5 3.2-7.1 5.4-8.1 12.8-8.1 7.6 0 10.7 7.5 3.1-6.1 8.4-7.3l2-.2q5.8.1 8.2 3.3 1 1.4 1 3.3 0 4.1-3.7 5.4-.9.3-1.7.3-3.1 0-3.7-2.7l-.1-.7q.1-3 2.9-4.7.9-.5 1.9-.7-2.1-1.3-4.9-1.3-6.8 0-9.6 10.5zm190.6-11.6-59.1-.2q-3.1 0-3.3-2 0-1.9 3.2-1.9l59.3.1q3.2 0 3.3 2 0 2-3.4 2m0 38.3-59.3-.1q-3.1 0-3.2-2 0-2 3.4-2l59.1.2q3.1 0 3.3 2 0 2-3.3 1.9m.1-19.1-59.3-.2q-3.2 0-3.3-2 0-1.9 3.3-1.9l59.3.1q3.2 0 3.3 2 0 2-3.3 2m144.9-14.3q.5-3.4 3-4.2.5-.2 1.1-.2 2.6 0 2.9 2.7 0 .6-.7 3.4l-3.6 13.8-2.2 8.9q-1.3 5.1-1.3 7.3 0 4.6 3 4.6 3.7 0 6.3-7.9l1.2-4.4q.8-1.7 1.4-1.8 1.2 0 1.2 1 0 1.5-1.8 6.9l-1.2 2.9q-2.8 5.4-7.3 5.4-5.6 0-8.1-4.7-.6-1.2-.9-2.7-6.3 7.4-12.9 7.4-7.5 0-11-6.8-2.2-3.9-2.2-9.1.1-10.7 7.5-19.7 7-8.3 15.1-9.1l1.4-.1q6 0 9.1 6.4m-6.5 25.6 5-19.4.3-1.7q0-2.1-1.8-5-2.2-3.7-6-3.7-5.2 0-9.9 6.7l-1.6 2.7q-2.9 5.8-4.9 16.4-.6 3.3-.6 5.3-.1 6.7 3.7 8.7 1.1.6 2.6.6 5.5 0 11.2-7 1.4-1.6 1.9-3.2v-.1zm41.8-20.6-7.3 29.2q3-1.2 7.7-6.4 5.5-6.1 10.1-6.1 3.4 0 4.5 2.8.3.7.2 1.6 0 2.8-2.3 3.9-.8.3-1.5.3-2.1 0-2.5-1.9l-.1-.6q0-1.9 1.7-3l.1-.1q.9-.5 2.2-.6l-.3-.3q-.6-.4-1.5-.5l-.6-.1q-3.7 0-8.9 5.6l-.6.6-.4.4q-3.6 3.8-6 5.1 10.3 1.4 10.2 7.3 0 1-.2 2.2-.6 2.2-.6 3.9 0 3.2 2.2 3.2 3.2 0 5.2-5.7.4-1.2.9-2.9.5-1.1.9-1.2.9 0 .9.7 0 1.1-1.4 4.5-.5 1.4-1.1 2.5-2.3 3.6-5.5 3.6-3.8 0-5.6-3.3-.8-1.6-.8-3.5 0-.8.3-2.5.2-.6.2-1.4 0-4.4-6.2-5.6l-1.8-.3q-3.5 14.4-3.9 15.1-.7 1.4-2.4 1.5-1.7 0-1.9-1.5l-.1-.5q0-.5.3-1.5l10.1-39.8.2-1.4q0-.8-.9-1t-2.5-.2-1.7-.8q0-1.2 1.3-1.4l8.5-.7q.9 0 .9.8m249 56.7q0 1-.9 1-1.2 0-5.3-4-6.1-6.2-10.1-14.6-6.6-13.5-6.5-30.9 0-16.7 6.3-30.1 5.2-11 13.1-17.6 2.1-1.7 2.7-1.7 1 0 1 1 0 .5-1.3 1.7-16 16.2-16.1 46.7 0 30.6 15.5 46.4 1.6 1.7 1.6 2.1m16.7-57.7q0-3.8-1.5-4.7-1.1-.7-4.2-.8h-2v-3.1l14-1.1-.1 10.4q4.7-10.3 14.7-10.3 11.6 0 13.2 9.7 3-6.7 9.3-8.9 2.4-.8 5-.8 7.5.1 10.4 3.7 2.7 3.1 3 8.4l.1 6.8-.1 18.9q.1 2.3 2.9 2.7 1.2.2 4.8.2v3.1l-11.1-.3-11.1.3v-3.1q5.8 0 6.8-.9l.2-.2q.7-.8.7-3.3v-23.1q.1-9.8-5.6-10.8-.8-.2-1.7-.2-6 0-10.1 5.2-3.2 4.3-3.3 10.6v18.2q0 3.4 1.6 4 1.1.5 6.1.5v3l-11.1-.3-11.2.3v-3.1q5.9 0 6.9-.8l.2-.2q.7-.8.7-3.4v-23.1q0-9.7-5.6-10.7-.8-.2-1.7-.2-6-.1-10.1 5.2-3.3 4.2-3.3 10.5v18.2q0 3.4 1.6 4 1 .5 6.1.5v3.1l-11.1-.3-11.2.2v-3q5.9 0 6.9-.9l.1-.2q.7-.8.7-3.4zM789.5 453q0 10.2-7.5 16.8-6.3 5.4-14.5 5.4-9.5-.1-16-7.2-5.9-6.4-5.8-15.1 0-10.1 7.2-17 6.3-6.1 14.8-6.1 9.6 0 16.1 7.6 5.7 6.7 5.7 15.6m-21.9 19.7q6.6 0 10.5-5.5l1-1.8q2.2-4.3 2.2-13.2 0-9.5-2.5-13.8-4.3-6.1-11.2-6.5-6.1 0-10.1 5-.7.8-1.2 1.6-2.4 4.4-2.4 13.6 0 9.6 2.4 13.9 4.2 6.5 11.3 6.7m65.2-3.9q-5.1 6.5-13.2 6.5-9.1 0-15.5-7.3-5.5-6.4-5.5-15.1.1-10.3 7.8-17 6.2-5.4 14.4-5.4 7.5 0 12.4 6.2l.1-21.4q0-3.9-1.4-4.8h-.1q-1.3-.8-6.2-.8v-3l14.2-1.1-.1 60q0 3.9 1.5 4.8h.1q1.3.8 6.1.8v3.1l-14.6 1zm.1-26.5q0-2-.9-3.2l-.2-.4q-4-6-10.7-6-6.9 0-11.2 6.3-3 4.7-3.1 14 0 9.3 2.9 13.8 3.9 6.3 10.4 6.3 7.1.1 11.5-6.5l.2-.3q1-2.1 1-3.7zm59 26.2 5.8-22.8q1.6-6.3 1.6-8.3 0-4.5-3.1-4.6-4 0-6.6 9.4l-.6 2.4q-1.1 2.2-1.7 2.3-1.2 0-1.2-1 0-1.6 2-7.1v-.1l.1-.1v-.2l.9-2.1q2.2-4 4.5-4.9 1.3-.7 2.9-.7 5.6 0 8 4.6.9 1.8 1.1 4 6.4-8.6 15.5-8.6 8.5.1 10.8 6.6.6 1.8.5 4 0 5.1-6 21.8-1.8 4.3-1.8 7-.1 3.3 2.3 3.3 6.6 0 10.2-12.3.5-1.5.9-1.6v-.1h.5q1.2 0 1.2.9 0 1.7-2.1 6.3-4.2 9-10.9 9-5-.1-7.2-4.3-.9-1.8-.9-3.9 0-2 1-4.5 6.5-17.3 6.5-23.1 0-6.9-5.3-6.9-8.9 0-15 9.9l-1.2 2.1-1.3 5-1.7 6.6-2.2 8.9-1.9 7.3q-.9 2.6-3.6 2.8-2.5-.5-2.9-2.7zm70.6-26.5-7.2 29.2q2.9-1.1 7.7-6.4 5.4-6.1 10.1-6 3.3 0 4.4 2.7.3.8.3 1.6 0 2.9-2.4 4-.7.2-1.4.2-2.2 0-2.6-1.8l-.1-.6q0-1.9 1.8-3l.1-.1q.9-.5 2.1-.6l-.3-.3q-.5-.4-1.4-.6h-.6q-3.7 0-9 5.6l-.6.6-.4.4q-3.6 3.7-5.9 5.1 10.2 1.4 10.2 7.3 0 1-.3 2.2-.5 2.2-.6 3.8 0 3.3 2.3 3.3 3.1 0 5.1-5.7.5-1.2.9-2.9.6-1.2 1-1.2.8 0 .8.7 0 1.1-1.3 4.5-.6 1.3-1.2 2.5-2.2 3.6-5.5 3.6-3.8 0-5.5-3.3-.8-1.6-.8-3.6 0-.7.2-2.4.2-.7.2-1.4.1-4.4-6.2-5.7l-1.8-.2q-3.5 14.4-3.9 15.1-.7 1.3-2.4 1.5-1.6 0-1.9-1.5l-.1-.5q0-.5.3-1.5l10.2-39.9.2-1.3q0-.8-1-1-.8-.2-2.5-.2-1.5 0-1.6-.9 0-1.1 1.3-1.3l8.4-.7q.9 0 .9.7m47 7.9q0 16.7-6.3 30.1-5.1 11-13.1 17.6-2.1 1.7-2.6 1.7-1 0-1-1 0-.5 1.3-1.7 15.9-16.2 16-46.7.1-30.2-14.7-45.8l-.5-.5q-1.9-1.7-1.9-2.2 0-1 1-1 1.2 0 5.2 4 6.1 6.2 10.2 14.6 6.5 13.5 6.4 30.9" style="fill:#8080ff"/>
  </g>
</svg>
