<svg xmlns="http://www.w3.org/2000/svg" version="1.2" viewBox="0 0 673 508" width="673" height="508">
  <defs>
    <clipPath clipPathUnits="userSpaceOnUse" id="cp1">
      <path d="M-547-276h2098V940H-547z"/>
    </clipPath>
  </defs>
  <style>
    .s1{fill:none;stroke:#00c;stroke-linecap:round;stroke-linejoin:round;stroke-width:4}
  </style>
  <g id="Clip-Path" clip-path="url(#cp1)">
    <path class="s1" d="M419.1 257.8c0 113.7-92.2 205.9-205.8 205.9-113.7 0-205.9-92.2-205.9-205.9C7.4 144.2 99.6 52 213.3 52c113.6 0 205.8 92.2 205.8 205.8"/>
    <path class="s1" d="M666.1 257.8c0 113.7-92.1 205.9-205.8 205.9s-205.9-92.2-205.9-205.9C254.4 144.2 346.6 52 460.3 52s205.8 92.2 205.8 205.8"/>
    <path d="M336.8 93.2c-50 37.5-82.4 97.3-82.4 164.6 0 67.4 32.4 127.2 82.4 164.7 50-37.5 82.3-97.3 82.3-164.7 0-67.3-32.3-127.1-82.3-164.6" style="opacity:.25;fill:#00c"/>
    <path d="m201.1 33 17.8-29.8q.5-.8 1.3-.9.8 0 .9.5 0 .2.1.7l3.1 31.9q.1 1.3.6 1.5v.1q.7.3 2.7.3 1.1 0 1.2.5 0 1-.9 1l-5.8-.1-6.3.1h-.1q-.7 0-.7-.5.4-1 1.2-1 3.7 0 3.7-1.7l-.8-8.5h-12.8l-3.9 6.5q-.7 1.3-.7 1.9 0 1.5 2.4 1.8.8 0 .8.6 0 .9-1 .9l-4.9-.1h-.2l-4.3.1h-.1q-.6 0-.6-.5 0-.9.7-1h.4q3.2-.3 5.2-2.8.5-.7 1-1.5m6.1-7.5h11.7l-1.6-16.9zm273 10.4L487 8.5q.2-.8.2-1 0-.6-.8-.8h-.6q-.8-.1-1.9-.1-1.3 0-1.4-.6 0-.9.7-1h17.9q5.8 0 8.3 3.5 1.2 1.6 1.2 3.5 0 4.2-4.6 7.2-.1 0-.1.1-2.7 1.7-6 2.3 5.2.6 7.1 4.1.8 1.4.8 3.1 0 3.7-3.6 7v.1q-4.4 3.9-10.5 3.9h-18.2q-1.3 0-1.4-.5 0-.9.8-1h.6q3.3 0 4-.8.3-.3.6-1.4zm7.7-14.7h7.4q5.1 0 8.3-3.7 2.3-2.6 2.3-5.7 0-3.7-3-4.8-1.1-.4-2.5-.4h-6.6q-1.9 0-2.3.5v.1q-.2.3-.5 1.3zm-2.3 17.1h7q4.9 0 8.1-3.7 2.4-2.8 2.4-6.3 0-3.7-2.6-5.2-1.4-.8-3.2-.8h-9.7l-3.5 14.3q-.3.9-.3 1.1 0 .5.5.6zM287.1 497l17.8-29.8q.5-.8 1.3-.9.8 0 .9.5 0 .2.1.7l3.1 31.9q.1 1.3.6 1.5v.1q.7.3 2.7.3 1.1 0 1.2.5 0 1-.9 1l-5.8-.1-6.3.1h-.1q-.7 0-.7-.5.4-1 1.2-1 3.7 0 3.7-1.7l-.8-8.5h-12.8l-3.9 6.5q-.7 1.3-.7 1.9 0 1.5 2.4 1.8.8 0 .8.6 0 .9-1 .9l-4.9-.1h-.2l-4.3.1h-.1q-.6 0-.6-.5 0-.9.7-1h.4q3.2-.3 5.2-2.8.5-.7 1-1.5m6.1-7.5h11.7l-1.6-16.9zm65.5-6.1v18.9q0 1.6-1 1.7-1 0-1-1.7v-18.7q0-5.6-5.9-8-2.9-1.2-6.2-1.2-5.2 0-8.8 2.6-3.3 2.5-3.3 6.6v18.7q0 1.6-1 1.7-1.1 0-1.1-1.7v-18.9q0-5.8 5.6-8.9 3.8-2.2 8.6-2.2 6.1 0 10.2 3.2 3.9 3.1 3.9 7.9m22.4 15.5 6.8-27.4q.2-.8.2-1 0-.6-.8-.8h-.5q-.9-.1-2-.1-1.3 0-1.4-.6 0-.9.8-1H402q5.9 0 8.4 3.5 1.1 1.6 1.1 3.5 0 4.2-4.6 7.2-.1 0-.1.1-2.7 1.7-6 2.3 5.2.6 7.2 4.1.7 1.4.7 3.1 0 3.7-3.5 7l-.1.1q-4.4 3.9-10.4 3.9h-18.2q-1.3 0-1.4-.5 0-.9.7-1h.7q3.3 0 3.9-.8.3-.3.6-1.4zm7.7-14.7h7.4q5.1 0 8.4-3.7 2.2-2.6 2.2-5.7 0-3.7-3-4.8-1.1-.4-2.5-.4h-6.6q-1.8 0-2.2.5h-.1v.1q-.2.3-.4 1.3zm-2.3 17.1h6.9q4.9 0 8.1-3.7 2.5-2.8 2.5-6.3 0-3.7-2.7-5.2-1.3-.8-3.2-.8h-9.6l-3.6 14.3q-.2.9-.2 1.1 0 .5.4.6z" style="fill:#00c"/>
  </g>
</svg>
