<svg version="1.2" xmlns="http://www.w3.org/2000/svg" viewBox="0 0 402 402" width="402" height="402">
  <defs>
    <clipPath clipPathUnits="userSpaceOnUse" id="cp1">
      <path d="M-750-361h2098V855H-750z"/>
    </clipPath>
  </defs>
  <style>
    .s1{opacity:.7;fill:#8080ff}
  </style>
  <g id="Clip-Path" clip-path="url(#cp1)">
    <path d="m9.6 269.8 2.6.9m0 0 4.1 1.2 4.1 1.1m0 0 4.1 1 4.1.8 4.1.8 4 .6m0 0 4.1.5 4.1.3 4.1.3 4.1.1h4.1l4.1-.1 4.1-.3 4.1-.4 4.1-.5 4.1-.6 4.1-.7 4.1-.9 4.1-1 4.1-1.1 4.1-1.2 4.1-1.4 4.1-1.5 4.1-1.6 4.1-1.7 4.1-1.9 4.1-2 4.1-2.1 4.1-2.2 4.1-2.3 4.1-2.5 4.1-2.6 4.1-2.7 4.1-2.8 4.1-3 4.1-3.1 4.1-3.2 4.1-3.3m0 0 4.1-3.5 4.1-3.6 4.1-3.7 4.1-3.8 4.1-3.9 4.1-4.1 4.1-4.2 4.1-4.3 4.1-4.4 4.1-4.6 4-4.7 4.1-4.8 4.1-4.9 4.1-5.1 4.1-5.2 4.1-5.3m0 0 4.1-5.4 4.1-5.5 4.1-5.7 4.1-5.8 4.1-5.9 4.1-6.1 4.1-6.1 4.1-6.3m0 0 4.1-6.4 4.1-6.6m0 0 4.1-6.6m0 0 3.7-6.1" style="opacity:.7;fill:none;stroke:#8080ff;stroke-linecap:round;stroke-linejoin:round;stroke-width:2.5"/>
    <path class="s1" d="m9.6 4.8-4.3 17h3v346.5c0 .3.1.6.4.9q.3.3.9.3.45 0 .9-.3.3-.45.3-.9V21.8h3z"/>
    <path class="s1" d="M356.1 364v3H9.6c-.4 0-.7.2-.9.4-.3.2-.4.6-.4.9s.1.6.4.9q.3.3.9.3h346.5v3l17-4.2z"/>
    <path d="m392 388.5-.9 3.7q-.5 1.8-.5 2.3 0 1.4 1 1.7.3.1.5.1 1.4 0 2.5-1.3.7-.9 1.1-2.2.1-.3.4-.3t.3.3q0 .6-.8 1.9-1.5 2.2-3.5 2.2-1.9 0-2.7-1.5-.2-.3-.2-.5-.7 1.3-1.8 1.8-.5.2-1.1.2-1.6 0-2.2-.9-.3-.4-.3-.9 0-1 .8-1.4.3-.1.7-.1.8 0 .9.6l.1.3q0 .9-.9 1.4-.2 0-.4.1.6.3 1.3.3 1.5 0 2.3-1.9l.3-.9q1.5-5.5 1.5-6.4-.2-1.7-1.5-1.8-1.4 0-2.6 1.4v.1q-.4.5-.7 1.2l-.2.7-.1.1q-.1.3-.4.3t-.3-.3q0-.6.9-1.9 1.4-2.2 3.5-2.2 2 0 2.9 2 .8-1.6 2.3-2h.5q1.6 0 2.3.9.2.4.2.9 0 1.1-1 1.5h-.4q-.9 0-1-.7l-.1-.2q0-.8.8-1.3.3-.1.5-.2-.5-.3-1.3-.3-1.8 0-2.6 2.8zM32.1 20.4l-2.6 10.3q-.7 2.7-2.9 4.3-1.6 1.2-3.4 1.2T20.6 35q-.3-.5-.3-1.1 0-1.4 1.1-1.7l.4-.1q.9 0 1 .8v.2q0 .6-.5 1.1-.4.3-1.2.3.5 1.2 2.1 1.2 1.7 0 2.9-1.7 1.1-1.5 1.7-3.9l.1-.3Q26.7 31 25.2 31q-2.2 0-3-1.6-.3-.7-.3-1.6 0-1.5 1.4-5.3l.1-.4q.5-1.2.5-1.9 0-.8-.7-.8-1.5 0-2.4 2.4v.1l-.3.8q-.3.5-.4.5-.3 0-.3-.3 0-.5.5-1.7 1.2-2.4 3-2.4 1.4 0 2 1.2.2.5.2 1 0 .6-.5 1.9-1.4 3.6-1.4 5.3 0 2.2 1.7 2.2 1.6 0 2.7-1.7.3-.4.3-.6l1.3-4.8q.1-.9.5-2.2.3-1.2.4-1.5.3-.5.9-.5.7.1.8.7 0 .2-.1.6m273 94.7-2.6 10.3q-.6 2.6-2.9 4.3-1.6 1.2-3.4 1.2t-2.6-1.3q-.3-.5-.3-1.1 0-1.3 1.1-1.7h.5q.8 0 .9.7l.1.2q0 .6-.6 1.1-.4.4-1.1.4.4 1.1 2 1.1 1.7 0 3-1.7 1-1.4 1.6-3.8l.1-.4q-1.2 1.2-2.7 1.2-2.2 0-2.9-1.6-.4-.7-.4-1.6 0-1.5 1.4-5.3l.2-.3q.4-1.3.4-1.9 0-.9-.6-.9-1.5 0-2.5 2.5l-.3.9q-.3.4-.4.4-.3 0-.3-.2 0-.5.5-1.7 1.2-2.5 3-2.5 1.5 0 2 1.2.3.5.3 1 0 .6-.6 2-1.4 3.5-1.4 5.3 0 2.1 1.7 2.1 1.6 0 2.7-1.6.3-.4.4-.6l1.2-4.9q.2-.9.5-2.2.3-1.1.4-1.4.3-.6.9-.6.7.1.8.7 0 .3-.1.7m27.1 1.4h-16.1q-.9 0-.9-.5 0-.6.9-.6h16.1q.9 0 .9.6 0 .5-.9.5m0 5.3h-16.1q-.9 0-.9-.6 0-.5.9-.5h16.1q.9 0 .9.5 0 .6-.9.6m19.9-7.3-1.6 8.6q-.3 1.7-1 3.8-.3.8-.5 1.4-1 2-2.4 2.4-.3.2-.7.2-1.3 0-2-.9-.3-.4-.3-1 0-1.1.9-1.5.3-.1.6-.1.8 0 1 .7v.2q0 1-.8 1.3-.3.2-.7.2.5.5 1.3.5 1.2 0 1.9-2.7l.3-1.6.2-.8 2-10.7h-1.8q-.7 0-.7-.2h-.1v-.1q0-.4.5-.5h2.2q.7-3.4.9-4.2.8-2.7 2.9-3.1l.5-.1q1.4 0 2.1.9.3.4.3 1 0 1.1-.9 1.5-.3.1-.6.1-.8 0-1-.7v-.3q0-.8.8-1.2.3-.2.7-.2-.5-.5-1.4-.5-.8 0-1.2.9-.2.4-.7 2.8l-.5 3.1h2.2q.7 0 .7.3 0 .5-.4.5zm15.2 17.3q0 .3-.3.3t-1.4-1.1q-1.7-1.7-2.8-4-1.8-3.7-1.8-8.4 0-4.6 1.7-8.2 1.4-3 3.6-4.8.5-.5.7-.5.3 0 .3.3 0 .1-.4.4-4.3 4.5-4.3 12.8t4.2 12.6q.5.5.5.6m10.6-14.6-.9 3.7q-.5 1.8-.5 2.4 0 1.4 1 1.7h.5q1.3 0 2.4-1.3.8-.9 1.2-2.2.1-.3.3-.3.4 0 .4.3 0 .7-.9 1.9-1.4 2.2-3.5 2.2-1.8 0-2.6-1.5-.2-.2-.3-.5-.6 1.3-1.8 1.8-.5.2-1 .2-1.6 0-2.3-.9-.3-.4-.3-.8 0-1 .9-1.4.3-.2.6-.2.8 0 1 .7v.2q0 1-.9 1.4-.2.1-.3.1.5.3 1.3.3 1.4 0 2.3-1.9l.3-.9q1.4-5.5 1.4-6.4-.1-1.7-1.4-1.8-1.4 0-2.6 1.4v.1q-.4.5-.7 1.2l-.3.7v.1q-.1.3-.4.3t-.3-.2q0-.7.8-2 1.5-2.2 3.5-2.2 2.1 0 2.9 2.1.9-1.7 2.3-2l.6-.1q1.6 0 2.2.9.3.4.3.9 0 1.1-1 1.5-.3.1-.5.1-.8 0-1-.8v-.2q0-.8.8-1.3.2-.1.5-.1-.6-.4-1.3-.4-1.9 0-2.6 2.9zm14.2 1.4q0 4.5-1.7 8.2-1.4 3-3.6 4.8-.6.5-.7.5-.3 0-.3-.3 0-.1.3-.5 4.4-4.4 4.4-12.7t-4.1-12.5l-.1-.1q-.5-.5-.5-.7t.3-.2 1.4 1.1q1.7 1.7 2.8 3.9 1.8 3.7 1.8 8.5" style="fill:#8080ff"/>
  </g>
</svg>
